/* XPM */
static char *icon[] = {
/* columns rows colors chars-per-pixel */
"32 32 72 1 ",
"  c None",
". c black",
"X c #0D0C02",
"o c #0F0E03",
"O c #181704",
"+ c #2D2B07",
"@ c #322F08",
"# c #3A370A",
"$ c #400E0E",
"% c #6D1717",
"& c #44410B",
"* c #4F4B0D",
"= c #6A6512",
"- c #032750",
"; c #04356D",
": c #043976",
"> c #941F1F",
", c #FF3636",
"< c #FF3737",
"1 c #FF3838",
"2 c #FF4444",
"3 c #FF4A4A",
"4 c #FF4C4C",
"5 c #FF5151",
"6 c #FF5353",
"7 c #FF5555",
"8 c #FF5959",
"9 c #FF6060",
"0 c #FF6767",
"q c #FF6C6C",
"w c #FF7171",
"e c #FF7373",
"r c #FF7676",
"t c #FF7E7E",
"y c #FF7F7F",
"u c #918A18",
"i c #BFB520",
"p c #FFF22B",
"a c #054794",
"s c #075ABA",
"d c #0762CC",
"f c #0975F2",
"g c #097BFF",
"h c #FF8282",
"j c #FF8E8E",
"k c #FF9090",
"l c #FF9494",
"z c #FF9B9B",
"x c #FF9F9F",
"c c #FFA0A0",
"v c #FFA1A1",
"b c #FFA8A8",
"n c #FFB9B9",
"m c #FFBCBC",
"M c #FFC0C0",
"N c #FFC1C1",
"B c #FFC9C9",
"V c #FFD8D8",
"C c #FFD9D9",
"Z c #FFDADA",
"A c #FFDCDC",
"S c #FFE3E3",
"D c #FFE5E5",
"F c #FFEBEB",
"G c #FFEEEE",
"H c #FFF1F1",
"J c #FFF2F2",
"K c #FFF6F6",
"L c #FFF8F8",
"P c #FFFCFC",
"I c #FFFEFE",
"U c white",
/* pixels */
"........................        ",
"........................        ",
"..ggggggggggggggggggga..        ",
"..gfddddddddddddddddd:..        ",
"..gs.......................     ",
"..gs.X@@@@@@@@@@@@@@@@@@@o.     ",
"..gs.&ppppppppppppppppppp*.     ",
"..gs.&ppppppppppppppppppp*.     ",
"..gs.&ppppppppppppppppppp*.     ",
"..gs.&ppppppppppppppppppp*.     ",
"..gs.&ppppppppppppppppppp*.     ",
"..gs.&ppiuuuuuuuuuuuuuuuu+..    ",
"..gs.&pp=.......................",
"..gs.&pp=.$%%%%%%%%%%%%%%%%%%%..",
"..gs.&pp=.>,,,,,,,,,,,,,,,,,,,..",
"..gs.&pp=.>,,,,,,,,,,,,,,,,,,,..",
"..gs.&pp=.>,,,,,,,,Zy,eS<,,,,,..",
"..gs.&pp=.>,,,,,,,4U6,bM,,,,,,..",
"..;-.&pp=.>,,,,,,,yF,,Aj,,,,,,..",
".....&pp=.>,,,,qBBDHBBIVBz,,,,..",
"   ..&pp=.>,,,,8llKnlmJllr,,,,..",
"    .&pp=.>,,,,,,4U7,bN,,,,,,,..",
"    .o##O.>,,,,,,yF,,Ck,,,,,,,..",
"    ......>,,,0JJLPJJIKJB,,,,,..",
"        ..>,,,2qqGvqxJqq9,,,,,..",
"        ..>,,,,,3U6,bN,,,,,,,,..",
"        ..>,,,,,tF,,Cj,,,,,,,,..",
"        ..>,,,,,wh,1c5,,,,,,,,..",
"        ..>,,,,,,,,,,,,,,,,,,,..",
"        ..>,,,,,,,,,,,,,,,,,,,..",
"        ........................",
"        ........................"
};
